<svg width="60" height="61" viewBox="0 0 60 61" fill="none" xmlns="http://www.w3.org/2000/svg">
<path fill-rule="evenodd" clip-rule="evenodd" d="M3.99982 30.6893C3.99982 16.4032 15.6316 4.80774 29.9978 4.80774C44.3639 4.80774 55.9957 16.4032 55.9957 30.6893C55.9957 32.8211 55.7367 34.893 55.2483 36.8754L43.1802 22.992L41.7309 21.3247L40.2155 22.9322L35.0167 28.4466L25.7524 19.1042L24.2415 17.5806L22.8278 19.1947L5.4006 39.0912C4.49261 36.4563 3.99982 33.6298 3.99982 30.6893ZM7.18938 43.1198C11.6058 51.1342 20.1608 56.5709 29.9978 56.5709C40.7017 56.5709 49.8877 50.1337 53.8755 40.9426L53.6523 41.1366L41.6106 27.2835L36.5083 32.6955L35.0894 34.2006L33.6329 32.7318L24.423 23.4443L7.18938 43.1198ZM29.9978 0.807739C13.4382 0.807739 -0.000183105 14.1783 -0.000183105 30.6893C-0.000183105 47.2003 13.4382 60.5709 29.9978 60.5709C46.5573 60.5709 59.9957 47.2003 59.9957 30.6893C59.9957 14.1783 46.5573 0.807739 29.9978 0.807739Z" fill="white"/>
</svg>
